<svg width="495" height="126" viewBox="0 0 495 126" fill="none" xmlns="http://www.w3.org/2000/svg">
<mask id="mask0_322_246" style="mask-type:luminance" maskUnits="userSpaceOnUse" x="153" y="0" width="342" height="126">
<path d="M153.608 0H494.963V125.333H153.608V0Z" fill="white"/>
</mask>
<g mask="url(#mask0_322_246)">
<path d="M153.608 0H494.838V125.333H153.608V0Z" fill="#8C52FF"/>
</g>
<path d="M23.7708 91.4391C19.0885 91.4391 14.9635 90.4704 11.3958 88.5225C7.82292 86.5798 5.03125 83.6579 3.02083 79.7516C1.00521 75.835 0 71.0173 0 65.2933C0 59.5745 1.00521 54.762 3.02083 50.8558C5.03125 46.9391 7.82292 44.012 11.3958 42.0641C14.9635 40.1214 19.0885 39.1475 23.7708 39.1475C28.6719 39.1475 32.8333 40.1058 36.25 42.0225C39.6667 43.9287 42.1042 46.835 43.5625 50.7516L36.2292 55.2516L35.3542 55.21C34.2708 52.5745 32.7917 50.6839 30.9167 49.5433C29.0521 48.3923 26.6719 47.8141 23.7708 47.8141C19.5625 47.8141 16.2708 49.21 13.8958 52.0016C11.5313 54.7933 10.3542 59.2256 10.3542 65.2933C10.3542 71.3506 11.5313 75.7725 13.8958 78.5641C16.2708 81.3558 19.5625 82.7516 23.7708 82.7516C30.3802 82.7516 34.4271 79.5433 35.9167 73.1266H36.7917L44.1875 76.9808C42.7969 81.8037 40.4219 85.4183 37.0625 87.835C33.6979 90.2412 29.2708 91.4391 23.7708 91.4391Z" fill="black"/>
<path d="M72.9622 91.4391C68.306 91.4391 64.1966 90.4912 60.6289 88.585C57.0716 86.6839 54.2852 83.7829 52.2747 79.8766C50.2591 75.9756 49.2539 71.1162 49.2539 65.2933C49.2539 59.4756 50.2591 54.6162 52.2747 50.71C54.2852 46.8089 57.0716 43.9079 60.6289 42.0016C64.1966 40.1006 68.306 39.1475 72.9622 39.1475C77.6289 39.1475 81.7331 40.0954 85.2747 41.9808C88.8164 43.8714 91.5872 46.7725 93.5872 50.6891C95.5977 54.6058 96.6081 59.4756 96.6081 65.2933C96.6081 71.1162 95.5977 75.9808 93.5872 79.8975C91.5872 83.8141 88.8164 86.7204 85.2747 88.6058C81.7331 90.4964 77.6289 91.4391 72.9622 91.4391ZM72.9622 82.71C77.2799 82.71 80.5716 81.3298 82.8372 78.5641C85.1133 75.7881 86.2539 71.3662 86.2539 65.2933C86.2539 59.2256 85.1133 54.8037 82.8372 52.0225C80.5716 49.2308 77.2799 47.835 72.9622 47.835C68.6289 47.835 65.3164 49.2308 63.0247 52.0225C60.7435 54.8037 59.6081 59.2256 59.6081 65.2933C59.6081 71.3662 60.7435 75.7881 63.0247 78.5641C65.3164 81.3298 68.6289 82.71 72.9622 82.71Z" fill="black"/>
<path d="M127.564 91.439C120.564 91.439 115.366 89.7827 111.98 86.4598C108.605 83.1265 106.918 78.189 106.918 71.6473V39.8765H116.751V71.5848C116.751 75.2931 117.637 78.0796 119.418 79.939C121.21 81.7879 123.923 82.7098 127.564 82.7098C134.772 82.7098 138.376 79.0015 138.376 71.5848V39.8765H148.23V71.6473C148.23 78.189 146.533 83.1265 143.147 86.4598C139.757 89.7827 134.564 91.439 127.564 91.439Z" fill="black"/>
<path d="M161.12 90.7098V39.8765H181.537C186.797 39.8765 190.766 41.0952 193.433 43.5223C196.11 45.939 197.453 49.2827 197.453 53.5431C197.453 56.6265 196.667 59.1577 195.099 61.1265C193.542 63.1004 191.209 64.6056 188.099 65.6473V66.3765C189.693 67.0744 190.985 68.1056 191.974 69.4806C192.959 70.8452 193.896 72.866 194.787 75.5431L199.849 90.7098H189.537L184.558 75.5223C184.042 73.9963 183.464 72.8088 182.828 71.9598C182.188 71.116 181.375 70.5015 180.391 70.1265C179.417 69.741 178.141 69.5431 176.558 69.5431H171.162V90.7098H161.12ZM180.308 61.564C185.183 61.564 187.62 59.2931 187.62 54.7515C187.62 50.1421 185.183 47.8348 180.308 47.8348H171.162V61.564H180.308Z" fill="white"/>
<path d="M224.553 91.4391C221.038 91.4391 217.908 91.0068 215.158 90.1475C212.408 89.2725 210.116 88.1266 208.283 86.71C206.46 85.2933 205.059 83.7412 204.074 82.0433L209.616 75.3141H210.491C212.017 77.5798 213.954 79.387 216.303 80.7308C218.663 82.0798 221.413 82.7516 224.553 82.7516C227.246 82.7516 229.272 82.1839 230.637 81.0433C232.012 79.9079 232.699 78.3454 232.699 76.3558C232.699 75.1475 232.475 74.1423 232.033 73.335C231.6 72.5173 230.871 71.8245 229.845 71.2516C228.829 70.6683 227.454 70.1683 225.72 69.7516L219.178 68.2516C214.605 67.21 211.204 65.4808 208.97 63.0641C206.73 60.637 205.616 57.4808 205.616 53.6058C205.616 50.7308 206.329 48.21 207.762 46.0433C209.204 43.8662 211.293 42.1683 214.033 40.96C216.783 39.7516 220.074 39.1475 223.908 39.1475C227.824 39.1475 231.178 39.6631 233.97 40.6891C236.762 41.7204 239.121 43.3037 241.053 45.4391L236.074 52.2516H235.199C233.767 50.7516 232.121 49.6266 230.262 48.8766C228.413 48.1162 226.293 47.7308 223.908 47.7308C221.142 47.7308 219.038 48.2204 217.595 49.1891C216.163 50.1631 215.449 51.512 215.449 53.2308C215.449 54.8298 215.949 56.1058 216.949 57.0641C217.96 58.012 219.71 58.7464 222.199 59.2725L228.866 60.6683C233.809 61.71 237.392 63.4808 239.616 65.9808C241.835 68.4704 242.949 71.7204 242.949 75.7308C242.949 78.8975 242.262 81.6631 240.887 84.0225C239.522 86.3714 237.46 88.1995 234.699 89.5016C231.949 90.7933 228.564 91.4391 224.553 91.4391Z" fill="white"/>
<path d="M262.337 68.3973V82.2931H286.607V90.7098H252.295V39.8765H286.066V48.2931H262.337V60.189H283.066V68.3973H262.337Z" fill="white"/>
<path d="M313.34 91.4391C309.1 91.4391 305.434 90.4756 302.34 88.5433C299.241 86.6006 296.85 83.6787 295.173 79.7725C293.491 75.8714 292.652 71.0433 292.652 65.2933C292.652 59.5016 293.658 54.6579 295.673 50.7516C297.684 46.835 300.486 43.9287 304.069 42.0225C307.652 40.1058 311.803 39.1475 316.527 39.1475C321.402 39.1475 325.553 40.0537 328.986 41.8558C332.413 43.6631 334.824 46.3506 336.215 49.9183L328.882 54.3766L328.007 54.335C326.965 52.0745 325.496 50.4183 323.611 49.3766C321.72 48.335 319.361 47.8141 316.527 47.8141C312.152 47.8141 308.803 49.1995 306.486 51.96C304.163 54.7256 303.007 59.1683 303.007 65.2933C303.007 71.4339 304.09 75.8975 306.257 78.6891C308.423 81.4704 311.632 82.8558 315.882 82.8558C319.533 82.8558 322.225 82.0381 323.965 80.3975C325.715 78.7464 326.59 76.2881 326.59 73.0225V70.8141H314.548V62.6475H336.569V90.71H326.965V83.8975L326.236 83.7933C325.194 86.2256 323.611 88.1058 321.486 89.4391C319.371 90.7725 316.658 91.4391 313.34 91.4391Z" fill="white"/>
<path d="M358.307 68.3973V82.2931H382.578V90.7098H348.266V39.8765H382.036V48.2931H358.307V60.189H379.036V68.3973H358.307Z" fill="white"/>
<path d="M401.687 90.7098H391.958V39.8765H403.479L423.875 72.6265L424.791 72.4806V39.8765H434.458V90.7098H424.166L402.562 55.7306L401.687 55.8765V90.7098Z" fill="white"/>
</svg>
